<svg xmlns="http://www.w3.org/2000/svg" width="401" height="476" viewBox="0 0 401 476" fill="none"><path d="M76.6303 276.587L49.3379 419.635H105.234L76.6303 276.587Z" fill="url(#paint0_linear_1_991)" stroke="#090B72" stroke-width="2" stroke-miterlimit="10"></path><path d="M76.8181 385.292V472.975" stroke="#090B72" stroke-width="2" stroke-miterlimit="10"></path><path d="M76.8371 409.937L69.1825 400.033" stroke="#090B72" stroke-width="2" stroke-miterlimit="10"></path><path d="M262.337 42.2174H94.6288V475H262.337V42.2174Z" fill="url(#paint1_linear_1_991)" stroke="#090B72" stroke-width="2" stroke-miterlimit="10"></path><path d="M262.337 365.895H94.6288V475H262.337V365.895Z" fill="url(#paint2_linear_1_991)" stroke="#090B72" stroke-width="2" stroke-miterlimit="10"></path><path d="M262.337 350.136H94.6288V365.895H262.337V350.136Z" fill="white" stroke="#090B72" stroke-width="2" stroke-miterlimit="10"></path><path d="M337.29 365.895H262.336V475H337.29V365.895Z" stroke="#090B72" stroke-width="2" stroke-miterlimit="10"></path><path d="M337.29 42.2174H262.336V475H337.29V42.2174Z" fill="url(#paint3_linear_1_991)" stroke="#090B72" stroke-width="2" stroke-miterlimit="10"></path><path d="M337.29 350.136H262.336V365.895H337.29V350.136Z" fill="#DEEBFD" stroke="#090B72" stroke-width="2" stroke-miterlimit="10"></path><path d="M149.906 67.6752H114.303V124.652H149.906V67.6752Z" fill="white" stroke="#090B72" stroke-width="2" stroke-miterlimit="10"></path><path d="M195.815 67.6752H160.212V124.652H195.815V67.6752Z" fill="white" stroke="#090B72" stroke-width="2" stroke-miterlimit="10"></path><path d="M242.662 67.6752H207.059V124.652H242.662V67.6752Z" fill="white" stroke="#090B72" stroke-width="2" stroke-miterlimit="10"></path><path d="M149.906 110.105H114.303V124.652H149.906V110.105Z" fill="url(#paint4_linear_1_991)" stroke="#090B72" stroke-width="2" stroke-miterlimit="10"></path><path d="M195.815 110.105H160.212V124.652H195.815V110.105Z" fill="url(#paint5_linear_1_991)" stroke="#090B72" stroke-width="2" stroke-miterlimit="10"></path><path d="M242.662 110.105H207.059V124.652H242.662V110.105Z" fill="url(#paint6_linear_1_991)" stroke="#090B72" stroke-width="2" stroke-miterlimit="10"></path><path d="M149.906 135.563H114.303V192.54H149.906V135.563Z" fill="white" stroke="#090B72" stroke-width="2" stroke-miterlimit="10"></path><path d="M195.815 135.563H160.212V192.54H195.815V135.563Z" fill="white" stroke="#090B72" stroke-width="2" stroke-miterlimit="10"></path><path d="M242.662 135.563H207.059V192.54H242.662V135.563Z" fill="white" stroke="#090B72" stroke-width="2" stroke-miterlimit="10"></path><path d="M149.906 177.992H114.303V192.54H149.906V177.992Z" fill="url(#paint7_linear_1_991)" stroke="#090B72" stroke-width="2" stroke-miterlimit="10"></path><path d="M195.815 177.992H160.212V192.54H195.815V177.992Z" fill="url(#paint8_linear_1_991)" stroke="#090B72" stroke-width="2" stroke-miterlimit="10"></path><path d="M242.662 177.992H207.059V192.54H242.662V177.992Z" fill="url(#paint9_linear_1_991)" stroke="#090B72" stroke-width="2" stroke-miterlimit="10"></path><path d="M149.906 203.45H114.303V260.427H149.906V203.45Z" fill="white" stroke="#090B72" stroke-width="2" stroke-miterlimit="10"></path><path d="M195.815 203.45H160.212V260.427H195.815V203.45Z" fill="white" stroke="#090B72" stroke-width="2" stroke-miterlimit="10"></path><path d="M242.662 203.45H207.059V260.427H242.662V203.45Z" fill="white" stroke="#090B72" stroke-width="2" stroke-miterlimit="10"></path><path d="M149.906 245.88H114.303V260.427H149.906V245.88Z" fill="url(#paint10_linear_1_991)" stroke="#090B72" stroke-width="2" stroke-miterlimit="10"></path><path d="M195.815 245.88H160.212V260.427H195.815V245.88Z" fill="url(#paint11_linear_1_991)" stroke="#090B72" stroke-width="2" stroke-miterlimit="10"></path><path d="M242.662 245.88H207.059V260.427H242.662V245.88Z" fill="url(#paint12_linear_1_991)" stroke="#090B72" stroke-width="2" stroke-miterlimit="10"></path><path d="M149.906 271.337H114.303V328.315H149.906V271.337Z" fill="white" stroke="#090B72" stroke-width="2" stroke-miterlimit="10"></path><path d="M195.815 271.337H160.212V328.315H195.815V271.337Z" fill="white" stroke="#090B72" stroke-width="2" stroke-miterlimit="10"></path><path d="M242.662 271.337H207.059V328.315H242.662V271.337Z" fill="white" stroke="#090B72" stroke-width="2" stroke-miterlimit="10"></path><path d="M149.906 313.767H114.303V328.315H149.906V313.767Z" fill="url(#paint13_linear_1_991)" stroke="#090B72" stroke-width="2" stroke-miterlimit="10"></path><path d="M195.815 313.767H160.212V328.315H195.815V313.767Z" fill="url(#paint14_linear_1_991)" stroke="#090B72" stroke-width="2" stroke-miterlimit="10"></path><path d="M242.662 313.767H207.059V328.315H242.662V313.767Z" fill="url(#paint15_linear_1_991)" stroke="#090B72" stroke-width="2" stroke-miterlimit="10"></path><path d="M295.129 67.6752H271.706V124.652H295.129V67.6752Z" stroke="#090B72" stroke-width="2" stroke-miterlimit="10"></path><path d="M295.129 110.105H271.706V124.652H295.129V110.105Z" fill="url(#paint16_linear_1_991)" stroke="#090B72" stroke-width="2" stroke-miterlimit="10"></path><path d="M295.129 135.563H271.706V192.54H295.129V135.563Z" stroke="#090B72" stroke-width="2" stroke-miterlimit="10"></path><path d="M295.129 177.992H271.706V192.54H295.129V177.992Z" fill="url(#paint17_linear_1_991)" stroke="#090B72" stroke-width="2" stroke-miterlimit="10"></path><path d="M295.129 203.45H271.706V260.427H295.129V203.45Z" stroke="#090B72" stroke-width="2" stroke-miterlimit="10"></path><path d="M295.129 245.88H271.706V260.427H295.129V245.88Z" fill="url(#paint18_linear_1_991)" stroke="#090B72" stroke-width="2" stroke-miterlimit="10"></path><path d="M295.129 271.337H271.706V328.315H295.129V271.337Z" stroke="#090B72" stroke-width="2" stroke-miterlimit="10"></path><path d="M295.129 313.767H271.706V328.315H295.129V313.767Z" fill="url(#paint19_linear_1_991)" stroke="#090B72" stroke-width="2" stroke-miterlimit="10"></path><path d="M327.92 67.6752H304.497V124.652H327.92V67.6752Z" stroke="#090B72" stroke-width="2" stroke-miterlimit="10"></path><path d="M327.92 110.105H304.497V124.652H327.92V110.105Z" fill="url(#paint20_linear_1_991)" stroke="#090B72" stroke-width="2" stroke-miterlimit="10"></path><path d="M327.92 135.563H304.497V192.54H327.92V135.563Z" stroke="#090B72" stroke-width="2" stroke-miterlimit="10"></path><path d="M327.92 177.992H304.497V192.54H327.92V177.992Z" fill="url(#paint21_linear_1_991)" stroke="#090B72" stroke-width="2" stroke-miterlimit="10"></path><path d="M327.92 203.45H304.497V260.427H327.92V203.45Z" stroke="#090B72" stroke-width="2" stroke-miterlimit="10"></path><path d="M327.92 245.88H304.497V260.427H327.92V245.88Z" fill="url(#paint22_linear_1_991)" stroke="#090B72" stroke-width="2" stroke-miterlimit="10"></path><path d="M327.92 271.337H304.497V328.315H327.92V271.337Z" stroke="#090B72" stroke-width="2" stroke-miterlimit="10"></path><path d="M327.92 313.767H304.497V328.315H327.92V313.767Z" fill="url(#paint23_linear_1_991)" stroke="#090B72" stroke-width="2" stroke-miterlimit="10"></path><path d="M271.706 21.6087H78.7014V42.2174H271.706V21.6087Z" fill="url(#paint24_linear_1_991)" stroke="#090B72" stroke-width="2" stroke-miterlimit="10"></path><path d="M353.218 21.6087H271.706V42.2174H353.218V21.6087Z" fill="url(#paint25_linear_1_991)" stroke="#090B72" stroke-width="2" stroke-miterlimit="10"></path><path d="M195.816 1H140.538V21.6087H195.816V1Z" fill="url(#paint26_linear_1_991)" stroke="#090B72" stroke-width="2" stroke-miterlimit="10"></path><path d="M235.166 1H195.815V21.6087H235.166V1Z" fill="url(#paint27_linear_1_991)" stroke="#090B72" stroke-width="2" stroke-miterlimit="10"></path><path d="M94.6284 185.266H82.4485V253.154H94.6284V185.266Z" stroke="#090B72" stroke-width="2" stroke-miterlimit="10"></path><path d="M82.4485 237.394H94.6284" stroke="#090B72" stroke-width="2" stroke-miterlimit="10"></path><path d="M242.661 365.895H114.303V475H242.661V365.895Z" fill="url(#paint28_linear_1_991)" stroke="#090B72" stroke-width="2" stroke-miterlimit="10"></path><path d="M213.617 365.895H143.348V475H213.617V365.895Z" fill="url(#paint29_linear_1_991)" stroke="#090B72" stroke-width="2" stroke-miterlimit="10"></path><path d="M128.358 442.268V475" stroke="#090B72" stroke-width="2" stroke-miterlimit="10"></path><path d="M133.042 428.934H122.736V442.269H133.042V428.934Z" fill="url(#paint30_linear_1_991)" stroke="#090B72" stroke-width="2" stroke-miterlimit="10"></path><path d="M371.956 475C371.956 474.6 372.003 474.2 372.003 473.788C372.003 469.599 371.204 465.474 369.676 461.781C368.149 458.087 365.941 454.938 363.248 452.613C360.555 450.288 357.46 448.859 354.238 448.452C351.016 448.045 347.766 448.674 344.776 450.282C341.501 444.345 337.017 439.701 331.823 436.868C326.628 434.036 320.928 433.124 315.357 434.237C309.786 435.349 304.563 438.441 300.27 443.169C295.977 447.896 292.783 454.072 291.044 461.01C289.225 459.301 287.076 458.276 284.835 458.049C282.594 457.823 280.349 458.403 278.347 459.726C276.345 461.048 274.665 463.062 273.493 465.544C272.321 468.026 271.702 470.879 271.706 473.788C271.706 474.2 271.706 474.6 271.753 475H371.956Z" fill="url(#paint31_linear_1_991)" stroke="#090B72" stroke-width="2" stroke-miterlimit="10"></path><path d="M0 475H401" stroke="#090B72" stroke-width="2" stroke-miterlimit="10"></path><g style="mix-blend-mode:multiply" opacity="0.9"><path d="M337.29 42.2174H94.6288V51.9156H337.29V42.2174Z" fill="#3670F5"></path></g><g style="mix-blend-mode:multiply" opacity="0.36"><path d="M337.29 363.47H94.6288V373.169H337.29V363.47Z" fill="#3670F5"></path></g><path d="M41.103 313.767L17.0524 439.844H66.3154L41.103 313.767Z" fill="url(#paint32_linear_1_991)" stroke="#090B72" stroke-width="2" stroke-miterlimit="10"></path><path d="M41.2151 404.688V472.975" stroke="#090B72" stroke-width="2" stroke-miterlimit="10"></path><path d="M41.2151 429.334L48.8697 419.429" stroke="#090B72" stroke-width="2" stroke-miterlimit="10"></path><path d="M347.156 278.611L320.613 417.732H374.973L347.156 278.611Z" fill="url(#paint33_linear_1_991)" stroke="#090B72" stroke-width="2" stroke-miterlimit="10"></path><path d="M347.277 378.939V475" stroke="#090B72" stroke-width="2" stroke-miterlimit="10"></path><path d="M347.277 406.131L355.719 395.196" stroke="#090B72" stroke-width="2" stroke-miterlimit="10"></path><defs><linearGradient id="paint0_linear_1_991" x1="71.2711" y1="509.538" x2="89.1572" y2="349.797" gradientUnits="userSpaceOnUse"><stop stop-color="#3670F5"></stop><stop offset="0.99" stop-color="#5B9BF3"></stop></linearGradient><linearGradient id="paint1_linear_1_991" x1="285.113" y1="42.9811" x2="-27.6198" y2="420.724" gradientUnits="userSpaceOnUse"><stop stop-color="white"></stop><stop offset="0.21" stop-color="#FBFDFF"></stop><stop offset="0.43" stop-color="#EEF6FF"></stop><stop offset="0.65" stop-color="#D9EAFF"></stop><stop offset="0.87" stop-color="#BDDAFF"></stop><stop offset="1" stop-color="#A8CEFF"></stop></linearGradient><linearGradient id="paint2_linear_1_991" x1="178.483" y1="457.895" x2="178.483" y2="306.166" gradientUnits="userSpaceOnUse"><stop stop-color="#DEEBFD"></stop><stop offset="1" stop-color="#A8CEFF"></stop></linearGradient><linearGradient id="paint3_linear_1_991" x1="299.813" y1="-77.3736" x2="299.813" y2="603.065" gradientUnits="userSpaceOnUse"><stop stop-color="#DEEBFD"></stop><stop offset="0.19" stop-color="#DAE9FD"></stop><stop offset="0.36" stop-color="#CFE2FC"></stop><stop offset="0.53" stop-color="#BDD7FA"></stop><stop offset="0.69" stop-color="#A3C7F8"></stop><stop offset="0.85" stop-color="#81B2F6"></stop><stop offset="1" stop-color="#5B9BF3"></stop></linearGradient><linearGradient id="paint4_linear_1_991" x1="99.3031" y1="117.378" x2="187.326" y2="117.378" gradientUnits="userSpaceOnUse"><stop stop-color="#DEEBFD"></stop><stop offset="0.79" stop-color="#5B9BF3"></stop></linearGradient><linearGradient id="paint5_linear_1_991" x1="5678.29" y1="110.105" x2="9023.18" y2="110.105" gradientUnits="userSpaceOnUse"><stop stop-color="#DEEBFD"></stop><stop offset="0.79" stop-color="#5B9BF3"></stop></linearGradient><linearGradient id="paint6_linear_1_991" x1="7505.28" y1="110.105" x2="10850.2" y2="110.105" gradientUnits="userSpaceOnUse"><stop stop-color="#DEEBFD"></stop><stop offset="0.79" stop-color="#5B9BF3"></stop></linearGradient><linearGradient id="paint7_linear_1_991" x1="3887.84" y1="2403.73" x2="7232.73" y2="2403.73" gradientUnits="userSpaceOnUse"><stop stop-color="#DEEBFD"></stop><stop offset="0.79" stop-color="#5B9BF3"></stop></linearGradient><linearGradient id="paint8_linear_1_991" x1="5678.29" y1="2403.73" x2="9023.18" y2="2403.73" gradientUnits="userSpaceOnUse"><stop stop-color="#DEEBFD"></stop><stop offset="0.79" stop-color="#5B9BF3"></stop></linearGradient><linearGradient id="paint9_linear_1_991" x1="7505.28" y1="2403.73" x2="10850.2" y2="2403.73" gradientUnits="userSpaceOnUse"><stop stop-color="#DEEBFD"></stop><stop offset="0.79" stop-color="#5B9BF3"></stop></linearGradient><linearGradient id="paint10_linear_1_991" x1="3887.84" y1="3286.26" x2="7232.73" y2="3286.26" gradientUnits="userSpaceOnUse"><stop stop-color="#DEEBFD"></stop><stop offset="0.79" stop-color="#5B9BF3"></stop></linearGradient><linearGradient id="paint11_linear_1_991" x1="5678.29" y1="3286.26" x2="9023.18" y2="3286.26" gradientUnits="userSpaceOnUse"><stop stop-color="#DEEBFD"></stop><stop offset="0.79" stop-color="#5B9BF3"></stop></linearGradient><linearGradient id="paint12_linear_1_991" x1="7505.28" y1="3286.26" x2="10850.2" y2="3286.26" gradientUnits="userSpaceOnUse"><stop stop-color="#DEEBFD"></stop><stop offset="0.79" stop-color="#5B9BF3"></stop></linearGradient><linearGradient id="paint13_linear_1_991" x1="3887.84" y1="4168.82" x2="7232.73" y2="4168.82" gradientUnits="userSpaceOnUse"><stop stop-color="#DEEBFD"></stop><stop offset="0.79" stop-color="#5B9BF3"></stop></linearGradient><linearGradient id="paint14_linear_1_991" x1="5678.29" y1="4168.82" x2="9023.18" y2="4168.82" gradientUnits="userSpaceOnUse"><stop stop-color="#DEEBFD"></stop><stop offset="0.79" stop-color="#5B9BF3"></stop></linearGradient><linearGradient id="paint15_linear_1_991" x1="7505.28" y1="4168.82" x2="10850.2" y2="4168.82" gradientUnits="userSpaceOnUse"><stop stop-color="#DEEBFD"></stop><stop offset="0.79" stop-color="#5B9BF3"></stop></linearGradient><linearGradient id="paint16_linear_1_991" x1="261.84" y1="117.378" x2="319.751" y2="117.378" gradientUnits="userSpaceOnUse"><stop stop-color="#DEEBFD"></stop><stop offset="0.56" stop-color="#5B9BF3"></stop></linearGradient><linearGradient id="paint17_linear_1_991" x1="6817.7" y1="2403.73" x2="8265.47" y2="2403.73" gradientUnits="userSpaceOnUse"><stop stop-color="#DEEBFD"></stop><stop offset="0.56" stop-color="#5B9BF3"></stop></linearGradient><linearGradient id="paint18_linear_1_991" x1="6817.7" y1="3286.26" x2="8265.47" y2="3286.26" gradientUnits="userSpaceOnUse"><stop stop-color="#DEEBFD"></stop><stop offset="0.56" stop-color="#5B9BF3"></stop></linearGradient><linearGradient id="paint19_linear_1_991" x1="6817.7" y1="4168.82" x2="8265.47" y2="4168.82" gradientUnits="userSpaceOnUse"><stop stop-color="#DEEBFD"></stop><stop offset="0.56" stop-color="#5B9BF3"></stop></linearGradient><linearGradient id="paint20_linear_1_991" x1="7670.29" y1="110.105" x2="9118.06" y2="110.105" gradientUnits="userSpaceOnUse"><stop stop-color="#DEEBFD"></stop><stop offset="0.56" stop-color="#5B9BF3"></stop></linearGradient><linearGradient id="paint21_linear_1_991" x1="7670.29" y1="2403.73" x2="9118.06" y2="2403.73" gradientUnits="userSpaceOnUse"><stop stop-color="#DEEBFD"></stop><stop offset="0.56" stop-color="#5B9BF3"></stop></linearGradient><linearGradient id="paint22_linear_1_991" x1="7670.29" y1="3286.26" x2="9118.06" y2="3286.26" gradientUnits="userSpaceOnUse"><stop stop-color="#DEEBFD"></stop><stop offset="0.56" stop-color="#5B9BF3"></stop></linearGradient><linearGradient id="paint23_linear_1_991" x1="7670.29" y1="4168.82" x2="9118.06" y2="4168.82" gradientUnits="userSpaceOnUse"><stop stop-color="#DEEBFD"></stop><stop offset="0.56" stop-color="#5B9BF3"></stop></linearGradient><linearGradient id="paint24_linear_1_991" x1="8752.33" y1="567.739" x2="52751.6" y2="567.739" gradientUnits="userSpaceOnUse"><stop stop-color="#DEEBFD"></stop><stop offset="1" stop-color="#A8CEFF"></stop></linearGradient><linearGradient id="paint25_linear_1_991" x1="209.579" y1="31.9131" x2="307.927" y2="31.9131" gradientUnits="userSpaceOnUse"><stop offset="0.02" stop-color="#98C0F7"></stop><stop offset="0.99" stop-color="#5B9BF3"></stop></linearGradient><linearGradient id="paint26_linear_1_991" x1="96.9712" y1="11.3043" x2="222.827" y2="11.3043" gradientUnits="userSpaceOnUse"><stop stop-color="white"></stop><stop offset="1" stop-color="#A8CEFF"></stop></linearGradient><linearGradient id="paint27_linear_1_991" x1="7160.45" y1="196.783" x2="9154.34" y2="196.783" gradientUnits="userSpaceOnUse"><stop offset="0.02" stop-color="#98C0F7"></stop><stop offset="0.99" stop-color="#5B9BF3"></stop></linearGradient><linearGradient id="paint28_linear_1_991" x1="178.482" y1="510.35" x2="178.482" y2="343.347" gradientUnits="userSpaceOnUse"><stop offset="0.14" stop-color="#DEEBFD"></stop><stop offset="0.26" stop-color="#D8E7FD"></stop><stop offset="0.42" stop-color="#C8DEFB"></stop><stop offset="0.6" stop-color="#ADCDF9"></stop><stop offset="0.8" stop-color="#88B6F6"></stop><stop offset="0.99" stop-color="#5B9BF3"></stop></linearGradient><linearGradient id="paint29_linear_1_991" x1="178.483" y1="582.032" x2="178.483" y2="351.53" gradientUnits="userSpaceOnUse"><stop stop-color="#DEEBFD"></stop><stop offset="0.87" stop-color="#5B9BF3"></stop></linearGradient><linearGradient id="paint30_linear_1_991" x1="1517.87" y1="5396.64" x2="1537.44" y2="5222.43" gradientUnits="userSpaceOnUse"><stop stop-color="#3670F5"></stop><stop offset="0.99" stop-color="#5B9BF3"></stop></linearGradient><linearGradient id="paint31_linear_1_991" x1="321.831" y1="412.313" x2="321.831" y2="506.119" gradientUnits="userSpaceOnUse"><stop stop-color="#DEEBFD"></stop><stop offset="0.58" stop-color="#5B9BF3"></stop></linearGradient><linearGradient id="paint32_linear_1_991" x1="2208.76" y1="23176.5" x2="2208.76" y2="49400.5" gradientUnits="userSpaceOnUse"><stop stop-color="#DEEBFD"></stop><stop offset="1" stop-color="#A8CEFF"></stop></linearGradient><linearGradient id="paint33_linear_1_991" x1="20833.3" y1="23246.1" x2="18820.4" y2="46249.5" gradientUnits="userSpaceOnUse"><stop stop-color="white"></stop><stop offset="0.21" stop-color="#FBFDFF"></stop><stop offset="0.43" stop-color="#EEF6FF"></stop><stop offset="0.65" stop-color="#D9EAFF"></stop><stop offset="0.87" stop-color="#BDDAFF"></stop><stop offset="1" stop-color="#A8CEFF"></stop></linearGradient></defs></svg>