<svg xmlns="http://www.w3.org/2000/svg" width="455" height="400" viewBox="0 0 455 400" fill="none"><path d="M306.988 1H80.0361V233.597H306.988V1Z" fill="url(#paint0_linear_1_1069)" stroke="#090B72" stroke-width="2" stroke-miterlimit="10"></path><path d="M365.096 168.47H306.988V233.597H365.096V168.47Z" fill="url(#paint1_linear_1_1069)" stroke="#090B72" stroke-width="2" stroke-miterlimit="10"></path><path d="M455 399H0" stroke="#090B72" stroke-width="2" stroke-miterlimit="10"></path><path d="M426.494 233.597H325.626V320.434H426.494V233.597Z" fill="url(#paint2_linear_1_1069)" stroke="#090B72" stroke-width="2" stroke-miterlimit="10"></path><path d="M325.627 233.597H46.0482V320.434H325.627V233.597Z" fill="url(#paint3_linear_1_1069)" stroke="#090B72" stroke-width="2" stroke-miterlimit="10"></path><path d="M365.096 320.434H66.8795V333.873H365.096V320.434Z" fill="url(#paint4_linear_1_1069)" stroke="#090B72" stroke-width="2" stroke-miterlimit="10"></path><path d="M266.422 320.434H203.928V399H266.422V320.434Z" fill="url(#paint5_linear_1_1069)" stroke="#090B72" stroke-width="2" stroke-miterlimit="10"></path><path d="M365.096 320.434H306.988V399H365.096V320.434Z" fill="url(#paint6_linear_1_1069)" stroke="#090B72" stroke-width="2" stroke-miterlimit="10"></path><path d="M365.096 333.873H66.8795V399H365.096V333.873Z" fill="url(#paint7_linear_1_1069)" stroke="#090B72" stroke-width="2" stroke-miterlimit="10"></path><path d="M403.47 22.7091H325.626V168.47H403.47V22.7091Z" fill="url(#paint8_linear_1_1069)" stroke="#090B72" stroke-width="2" stroke-miterlimit="10"></path><path d="M152.398 22.7091V39.2494H306.988V151.93H152.398V168.47H325.626V22.7091H152.398Z" fill="url(#paint9_linear_1_1069)" stroke="#090B72" stroke-width="2" stroke-miterlimit="10"></path><path d="M306.988 39.2493H177.615V151.93H306.988V39.2493Z" fill="url(#paint10_linear_1_1069)" stroke="#090B72" stroke-width="2" stroke-miterlimit="10"></path><path d="M236.819 56.8234H201.735V134.356H236.819V56.8234Z" fill="white" stroke="#090B72" stroke-width="2" stroke-miterlimit="10"></path><path d="M236.819 119.883H201.735V134.356H236.819V119.883Z" fill="url(#paint11_linear_1_1069)" stroke="#090B72" stroke-width="2" stroke-miterlimit="10"></path><path d="M282.867 56.8234H247.783V134.356H282.867V56.8234Z" fill="white" stroke="#090B72" stroke-width="2" stroke-miterlimit="10"></path><path d="M282.867 119.883H247.783V134.356H282.867V119.883Z" fill="url(#paint12_linear_1_1069)" stroke="#090B72" stroke-width="2" stroke-miterlimit="10"></path><path d="M177.615 168.47V233.597" stroke="#090B72" stroke-width="2" stroke-miterlimit="10"></path><g style="mix-blend-mode:multiply" opacity="0.9"><path d="M364 169.504H178.711V176.74H364" fill="#9DB9FA"></path></g><path d="M196.253 168.47V233.597" stroke="#090B72" stroke-width="2" stroke-miterlimit="10"></path><path d="M214.892 168.47V233.597" stroke="#090B72" stroke-width="2" stroke-miterlimit="10"></path><path d="M232.434 168.47V233.597" stroke="#090B72" stroke-width="2" stroke-miterlimit="10"></path><path d="M252.169 168.47V233.597" stroke="#090B72" stroke-width="2" stroke-miterlimit="10"></path><path d="M269.711 168.47V233.597" stroke="#090B72" stroke-width="2" stroke-miterlimit="10"></path><path d="M288.349 168.47V233.597" stroke="#090B72" stroke-width="2" stroke-miterlimit="10"></path><path d="M306.988 168.47V233.597" stroke="#090B72" stroke-width="2" stroke-miterlimit="10"></path><path d="M325.626 168.47V233.597" stroke="#090B72" stroke-width="2" stroke-miterlimit="10"></path><path d="M345.361 168.47V233.597" stroke="#090B72" stroke-width="2" stroke-miterlimit="10"></path><path d="M365.096 168.47V233.597" stroke="#090B72" stroke-width="2" stroke-miterlimit="10"></path><path d="M414.434 244.969H337.687V292.522H414.434V244.969Z" fill="url(#paint13_linear_1_1069)" stroke="#090B72" stroke-width="2" stroke-miterlimit="10"></path><path d="M337.687 292.522V320.434" stroke="#090B72" stroke-width="2" stroke-miterlimit="10"></path><path d="M414.434 292.522V320.434" stroke="#090B72" stroke-width="2" stroke-miterlimit="10"></path><path d="M313.566 244.969H60.3011V292.522H313.566V244.969Z" fill="white" stroke="#090B72" stroke-width="2" stroke-miterlimit="10"></path><path d="M229.145 292.522V320.434" stroke="#090B72" stroke-width="2" stroke-miterlimit="10"></path><path d="M144.723 292.522V320.434" stroke="#090B72" stroke-width="2" stroke-miterlimit="10"></path><path d="M313.566 292.522V320.434" stroke="#090B72" stroke-width="2" stroke-miterlimit="10"></path><path d="M60.3011 292.522V320.434" stroke="#090B72" stroke-width="2" stroke-miterlimit="10"></path><path d="M364 1H306.988V22.7091H364V1Z" fill="url(#paint14_linear_1_1069)" stroke="#090B72" stroke-width="2" stroke-miterlimit="10"></path><path d="M365.096 320.434H306.988V399H365.096V320.434Z" stroke="#090B72" stroke-width="2" stroke-miterlimit="10"></path><path d="M266.422 320.434V399" stroke="#090B72" stroke-width="2" stroke-miterlimit="10"></path><path d="M203.928 320.434V399" stroke="#090B72" stroke-width="2" stroke-miterlimit="10"></path><path d="M106.349 333.873V399" stroke="#090B72" stroke-width="2" stroke-miterlimit="10"></path><path d="M180.904 333.873V399" stroke="#090B72" stroke-width="2" stroke-miterlimit="10"></path><path d="M180.904 333.873H106.349V399H180.904V333.873Z" fill="url(#paint15_linear_1_1069)" stroke="#090B72" stroke-width="2" stroke-miterlimit="10"></path><path d="M180.904 381.426H106.349V399H180.904V381.426Z" fill="url(#paint16_linear_1_1069)" stroke="#090B72" stroke-width="2" stroke-miterlimit="10"></path><path d="M96.482 399C96.482 398.659 96.482 398.318 96.482 397.966C96.482 395.726 96.014 393.508 95.1049 391.439C94.1958 389.369 92.8633 387.489 91.1834 385.905C89.5036 384.321 87.5093 383.065 85.3145 382.208C83.1197 381.35 80.7673 380.909 78.3916 380.909C76.7223 380.912 75.0616 381.134 73.4579 381.571C69.9235 377.792 65.2528 375.118 60.067 373.903C54.8812 372.688 49.4261 372.991 44.4272 374.771C39.4283 376.551 35.1226 379.723 32.0827 383.867C29.0428 388.01 27.4129 392.928 27.4097 397.966C27.4097 398.318 27.4097 398.659 27.4097 399H96.482Z" fill="url(#paint17_linear_1_1069)" stroke="#090B72" stroke-width="2" stroke-miterlimit="10"></path><path d="M343.169 333.873H325.626V399H343.169V333.873Z" fill="url(#paint18_linear_1_1069)" stroke="#090B72" stroke-width="2" stroke-miterlimit="10"></path><path d="M37.2771 255.307H24.1205V280.117H37.2771V255.307Z" fill="url(#paint19_linear_1_1069)" stroke="#090B72" stroke-width="2" stroke-miterlimit="10"></path><path d="M46.0482 260.475H37.2771V273.914H46.0482V260.475Z" fill="url(#paint20_linear_1_1069)" stroke="#090B72" stroke-width="2" stroke-miterlimit="10"></path><g style="mix-blend-mode:multiply" opacity="0.9"><path d="M364 321.468H67.976V327.67H364V321.468Z" fill="#3670F5"></path></g><path d="M410.048 399C410.048 398.659 410.103 398.318 410.103 397.966C410.103 393.442 408.197 389.104 404.804 385.905C401.412 382.706 396.81 380.909 392.013 380.909C390.343 380.911 388.683 381.134 387.079 381.571C383.549 377.773 378.874 375.081 373.679 373.855C368.483 372.628 363.014 372.926 358.003 374.708C352.992 376.49 348.677 379.672 345.634 383.828C342.592 387.984 340.966 392.916 340.976 397.966C340.976 398.318 340.976 398.659 340.976 399H410.048Z" fill="url(#paint21_linear_1_1069)" stroke="#090B72" stroke-width="2" stroke-miterlimit="10"></path><defs><linearGradient id="paint0_linear_1_1069" x1="229.879" y1="63.6979" x2="47.8503" y2="365.431" gradientUnits="userSpaceOnUse"><stop stop-color="white"></stop><stop offset="0.21" stop-color="#FBFDFF"></stop><stop offset="0.43" stop-color="#EEF6FF"></stop><stop offset="0.65" stop-color="#D9EAFF"></stop><stop offset="0.87" stop-color="#BDDAFF"></stop><stop offset="1" stop-color="#A8CEFF"></stop></linearGradient><linearGradient id="paint1_linear_1_1069" x1="450.527" y1="113.06" x2="247.774" y2="288.298" gradientUnits="userSpaceOnUse"><stop stop-color="white"></stop><stop offset="0.07" stop-color="#F4F9FF"></stop><stop offset="0.33" stop-color="#D3E6FF"></stop><stop offset="0.58" stop-color="#BBD9FF"></stop><stop offset="0.81" stop-color="#ADD1FF"></stop><stop offset="1" stop-color="#A8CEFF"></stop></linearGradient><linearGradient id="paint2_linear_1_1069" x1="252.377" y1="346.402" x2="386.177" y2="261.971" gradientUnits="userSpaceOnUse"><stop stop-color="#DEEBFD"></stop><stop offset="0.87" stop-color="#5B9BF3"></stop></linearGradient><linearGradient id="paint3_linear_1_1069" x1="158768" y1="-4675.26" x2="123254" y2="88506.9" gradientUnits="userSpaceOnUse"><stop stop-color="white"></stop><stop offset="0.21" stop-color="#FBFDFF"></stop><stop offset="0.43" stop-color="#EEF6FF"></stop><stop offset="0.65" stop-color="#D9EAFF"></stop><stop offset="0.87" stop-color="#BDDAFF"></stop><stop offset="1" stop-color="#A8CEFF"></stop></linearGradient><linearGradient id="paint4_linear_1_1069" x1="63992.6" y1="4209.27" x2="63912" y2="7006.42" gradientUnits="userSpaceOnUse"><stop stop-color="white"></stop><stop offset="0.21" stop-color="#FBFDFF"></stop><stop offset="0.43" stop-color="#EEF6FF"></stop><stop offset="0.65" stop-color="#D9EAFF"></stop><stop offset="0.87" stop-color="#BDDAFF"></stop><stop offset="1" stop-color="#A8CEFF"></stop></linearGradient><linearGradient id="paint5_linear_1_1069" x1="16081.1" y1="24524.3" x2="7084.35" y2="31747.2" gradientUnits="userSpaceOnUse"><stop stop-color="white"></stop><stop offset="0.21" stop-color="#FBFDFF"></stop><stop offset="0.43" stop-color="#EEF6FF"></stop><stop offset="0.65" stop-color="#D9EAFF"></stop><stop offset="0.87" stop-color="#BDDAFF"></stop><stop offset="1" stop-color="#A8CEFF"></stop></linearGradient><linearGradient id="paint6_linear_1_1069" x1="18117.2" y1="33476.2" x2="18117.2" y2="21522.3" gradientUnits="userSpaceOnUse"><stop stop-color="#DEEBFD"></stop><stop offset="0.87" stop-color="#5B9BF3"></stop></linearGradient><linearGradient id="paint7_linear_1_1069" x1="65376.4" y1="21182.4" x2="63019.9" y2="38046.5" gradientUnits="userSpaceOnUse"><stop stop-color="white"></stop><stop offset="0.21" stop-color="#FBFDFF"></stop><stop offset="0.43" stop-color="#EEF6FF"></stop><stop offset="0.65" stop-color="#D9EAFF"></stop><stop offset="0.87" stop-color="#BDDAFF"></stop><stop offset="1" stop-color="#A8CEFF"></stop></linearGradient><linearGradient id="paint8_linear_1_1069" x1="36072.9" y1="13505.6" x2="21960.6" y2="13505.6" gradientUnits="userSpaceOnUse"><stop stop-color="#DEEBFD"></stop><stop offset="0.87" stop-color="#5B9BF3"></stop></linearGradient><linearGradient id="paint9_linear_1_1069" x1="18277.3" y1="-5148.89" x2="61636.7" y2="53023.6" gradientUnits="userSpaceOnUse"><stop stop-color="#DEEBFD"></stop><stop offset="0.87" stop-color="#5B9BF3"></stop></linearGradient><linearGradient id="paint10_linear_1_1069" x1="55548.2" y1="-8545.88" x2="11372" y2="32789.2" gradientUnits="userSpaceOnUse"><stop stop-color="white"></stop><stop offset="0.21" stop-color="#FBFDFF"></stop><stop offset="0.43" stop-color="#EEF6FF"></stop><stop offset="0.65" stop-color="#D9EAFF"></stop><stop offset="0.87" stop-color="#BDDAFF"></stop><stop offset="1" stop-color="#A8CEFF"></stop></linearGradient><linearGradient id="paint11_linear_1_1069" x1="173.843" y1="127.119" x2="260.589" y2="127.119" gradientUnits="userSpaceOnUse"><stop stop-color="#DEEBFD"></stop><stop offset="0.71" stop-color="#5B9BF3"></stop></linearGradient><linearGradient id="paint12_linear_1_1069" x1="7284.3" y1="1900.03" x2="10060.2" y2="1900.03" gradientUnits="userSpaceOnUse"><stop stop-color="#DEEBFD"></stop><stop offset="0.71" stop-color="#5B9BF3"></stop></linearGradient><linearGradient id="paint13_linear_1_1069" x1="34917.6" y1="8439.82" x2="25561.3" y2="20746.3" gradientUnits="userSpaceOnUse"><stop stop-color="white"></stop><stop offset="0.21" stop-color="#FBFDFF"></stop><stop offset="0.43" stop-color="#EEF6FF"></stop><stop offset="0.65" stop-color="#D9EAFF"></stop><stop offset="0.87" stop-color="#BDDAFF"></stop><stop offset="1" stop-color="#A8CEFF"></stop></linearGradient><linearGradient id="paint14_linear_1_1069" x1="21696.2" y1="-973.086" x2="19509.8" y2="3706.21" gradientUnits="userSpaceOnUse"><stop stop-color="white"></stop><stop offset="0.07" stop-color="#F4F9FF"></stop><stop offset="0.33" stop-color="#D3E6FF"></stop><stop offset="0.58" stop-color="#BBD9FF"></stop><stop offset="0.81" stop-color="#ADD1FF"></stop><stop offset="1" stop-color="#A8CEFF"></stop></linearGradient><linearGradient id="paint15_linear_1_1069" x1="12775.3" y1="20862" x2="5335.83" y2="29458" gradientUnits="userSpaceOnUse"><stop stop-color="white"></stop><stop offset="0.21" stop-color="#FBFDFF"></stop><stop offset="0.43" stop-color="#EEF6FF"></stop><stop offset="0.65" stop-color="#D9EAFF"></stop><stop offset="0.87" stop-color="#BDDAFF"></stop><stop offset="1" stop-color="#A8CEFF"></stop></linearGradient><linearGradient id="paint16_linear_1_1069" x1="15873.1" y1="7015.62" x2="-791.284" y2="7015.62" gradientUnits="userSpaceOnUse"><stop stop-color="#DEEBFD"></stop><stop offset="0.87" stop-color="#5B9BF3"></stop></linearGradient><linearGradient id="paint17_linear_1_1069" x1="61.9458" y1="403.631" x2="61.9458" y2="372.267" gradientUnits="userSpaceOnUse"><stop stop-color="#3670F5"></stop><stop offset="0.99" stop-color="#5B9BF3"></stop></linearGradient><linearGradient id="paint18_linear_1_1069" x1="5675.99" y1="20547.4" x2="5675.99" y2="29709.5" gradientUnits="userSpaceOnUse"><stop stop-color="#3670F5"></stop><stop offset="0.99" stop-color="#5B9BF3"></stop></linearGradient><linearGradient id="paint19_linear_1_1069" x1="431.187" y1="6567.32" x2="1.12082" y2="6923.64" gradientUnits="userSpaceOnUse"><stop stop-color="white"></stop><stop offset="0.21" stop-color="#FBFDFF"></stop><stop offset="0.43" stop-color="#EEF6FF"></stop><stop offset="0.65" stop-color="#D9EAFF"></stop><stop offset="0.87" stop-color="#BDDAFF"></stop><stop offset="1" stop-color="#A8CEFF"></stop></linearGradient><linearGradient id="paint20_linear_1_1069" x1="385.314" y1="3699.1" x2="249.747" y2="3837.42" gradientUnits="userSpaceOnUse"><stop stop-color="white"></stop><stop offset="0.21" stop-color="#FBFDFF"></stop><stop offset="0.43" stop-color="#EEF6FF"></stop><stop offset="0.65" stop-color="#D9EAFF"></stop><stop offset="0.87" stop-color="#BDDAFF"></stop><stop offset="1" stop-color="#A8CEFF"></stop></linearGradient><linearGradient id="paint21_linear_1_1069" x1="24017" y1="10481.9" x2="24017" y2="9696.42" gradientUnits="userSpaceOnUse"><stop stop-color="#3670F5"></stop><stop offset="0.99" stop-color="#5B9BF3"></stop></linearGradient></defs></svg>