<svg xmlns="http://www.w3.org/2000/svg" width="552" height="455" viewBox="0 0 552 455" fill="none"><path d="M64.0944 250.356L95.8448 399.31H30.8294L64.0944 250.356Z" fill="url(#paint0_linear_1_926)" stroke="#090B72" stroke-width="2" stroke-miterlimit="10"></path><path d="M63.8779 340.827V454.852" stroke="#090B72" stroke-width="2" stroke-miterlimit="10"></path><path d="M63.8559 380.161L76.9418 364.596" stroke="#090B72" stroke-width="2" stroke-miterlimit="10"></path><path d="M506.237 157.79H420.16V453.174H506.237V157.79Z" fill="url(#paint1_linear_1_926)" stroke="#090B72" stroke-width="2" stroke-miterlimit="10"></path><path d="M107.449 453.174H420.159V157.79H281.782V179.25H107.449V453.174Z" fill="url(#paint2_linear_1_926)" stroke="#090B72" stroke-width="2" stroke-miterlimit="10"></path><g style="mix-blend-mode:multiply" opacity="0.9"><path d="M461.565 379.959H108.54V388.795H461.565V379.959Z" fill="#3670F5"></path></g><g style="mix-blend-mode:multiply" opacity="0.9"><path d="M461.565 280.236H108.54V289.072H461.565V280.236Z" fill="#3670F5"></path></g><path d="M420.159 157.79H281.783V179.25H420.159V157.79Z" stroke="#090B72" stroke-width="2" stroke-miterlimit="10"></path><path d="M506.237 157.79H420.16V179.25H506.237V157.79Z" fill="url(#paint3_linear_1_926)" stroke="#090B72" stroke-width="2" stroke-miterlimit="10"></path><path d="M420.159 257.514H107.449V278.973H420.159V257.514Z" fill="white" stroke="#090B72" stroke-width="2" stroke-miterlimit="10"></path><path d="M420.159 357.237H107.449V378.697H420.159V357.237Z" fill="white" stroke="#090B72" stroke-width="2" stroke-miterlimit="10"></path><path d="M506.237 257.514H420.16V278.973H506.237V257.514Z" stroke="#090B72" stroke-width="2" stroke-miterlimit="10"></path><path d="M506.237 357.237H420.16V378.697H506.237V357.237Z" stroke="#090B72" stroke-width="2" stroke-miterlimit="10"></path><g style="mix-blend-mode:multiply" opacity="0.9"><path d="M506.238 180.512H108.54V189.348H506.238V180.512Z" fill="#3670F5"></path></g><path d="M158.54 179.25V256.251" stroke="#090B72" stroke-width="2" stroke-miterlimit="10"></path><path d="M212.05 179.25V256.251" stroke="#090B72" stroke-width="2" stroke-miterlimit="10"></path><path d="M263.261 179.25V256.251" stroke="#090B72" stroke-width="2" stroke-miterlimit="10"></path><path d="M316.651 179.25V256.251" stroke="#090B72" stroke-width="2" stroke-miterlimit="10"></path><path d="M367.86 179.25V256.251" stroke="#090B72" stroke-width="2" stroke-miterlimit="10"></path><path d="M448.489 179.25V256.251" stroke="#090B72" stroke-width="2" stroke-miterlimit="10"></path><path d="M476.818 179.25V256.251" stroke="#090B72" stroke-width="2" stroke-miterlimit="10"></path><path d="M448.489 278.973V355.975" stroke="#090B72" stroke-width="2" stroke-miterlimit="10"></path><path d="M448.489 377.434V454.436" stroke="#090B72" stroke-width="2" stroke-miterlimit="10"></path><path d="M476.818 278.973V355.975" stroke="#090B72" stroke-width="2" stroke-miterlimit="10"></path><path d="M158.54 278.973V355.975" stroke="#090B72" stroke-width="2" stroke-miterlimit="10"></path><path d="M212.05 278.973V355.975" stroke="#090B72" stroke-width="2" stroke-miterlimit="10"></path><path d="M263.261 278.973V355.975" stroke="#090B72" stroke-width="2" stroke-miterlimit="10"></path><path d="M316.651 278.973V355.975" stroke="#090B72" stroke-width="2" stroke-miterlimit="10"></path><path d="M367.86 278.973V355.975" stroke="#090B72" stroke-width="2" stroke-miterlimit="10"></path><path d="M158.54 378.696V451.911" stroke="#090B72" stroke-width="2" stroke-miterlimit="10"></path><path d="M212.05 378.696V451.911" stroke="#090B72" stroke-width="2" stroke-miterlimit="10"></path><path d="M263.261 378.696V451.911" stroke="#090B72" stroke-width="2" stroke-miterlimit="10"></path><path d="M316.651 378.696V451.911" stroke="#090B72" stroke-width="2" stroke-miterlimit="10"></path><path d="M367.86 378.696V451.911" stroke="#090B72" stroke-width="2" stroke-miterlimit="10"></path><path d="M532.387 453.174V252.464L482.266 218.382H462.654V453.174H532.387Z" fill="white"></path><path d="M531.297 252.464H513.864L464.833 218.382H482.266L531.297 252.464Z" fill="url(#paint4_linear_1_926)"></path><path d="M532.388 252.464H512.775V451.911H532.388V252.464Z" fill="#DEEBFD"></path><path d="M532.387 453.174V252.464L482.266 218.382H462.654V453.174H532.387Z" stroke="#090B72" stroke-width="2" stroke-miterlimit="10"></path><path d="M512.775 252.464V453.174" stroke="#090B72" stroke-width="2" stroke-miterlimit="10"></path><path d="M462.654 218.382L512.775 252.464H531.298" stroke="#090B72" stroke-width="2" stroke-miterlimit="10"></path><path d="M476.818 312.93H501.879" stroke="#090B72" stroke-width="2" stroke-miterlimit="10"></path><path d="M476.818 334.515H501.879" stroke="#090B72" stroke-width="2" stroke-miterlimit="10"></path><path d="M476.818 355.975H501.879" stroke="#090B72" stroke-width="2" stroke-miterlimit="10"></path><path d="M281.782 79.5262H107.449V179.25H281.782V79.5262Z" fill="url(#paint5_linear_1_926)" stroke="#090B72" stroke-width="2" stroke-miterlimit="10"></path><path d="M358.053 79.5262H281.783V157.79H358.053V79.5262Z" fill="url(#paint6_linear_1_926)" stroke="#090B72" stroke-width="2" stroke-miterlimit="10"></path><path d="M334.083 113.609H307.933V157.79H334.083V113.609Z" fill="url(#paint7_linear_1_926)" stroke="#090B72" stroke-width="2" stroke-miterlimit="10"></path><path d="M304.665 40.3942V79.5262" stroke="#090B72" stroke-width="2" stroke-miterlimit="10"></path><path d="M270.887 92.1493H117.256V113.609H270.887V92.1493Z" fill="url(#paint8_linear_1_926)" stroke="#090B72" stroke-width="2" stroke-miterlimit="10"></path><path d="M218.151 92.1493V113.609" stroke="#090B72" stroke-width="2" stroke-miterlimit="10"></path><path d="M248.005 58.0666H149.943V79.5261H248.005V58.0666Z" fill="url(#paint9_linear_1_926)" stroke="#090B72" stroke-width="2" stroke-miterlimit="10"></path><path d="M248.006 58.0666H218.588V79.5261H248.006V58.0666Z" stroke="#090B72" stroke-width="2" stroke-miterlimit="10"></path><path d="M31.3207 289.072L59.3011 420.353H2L31.3207 289.072Z" fill="url(#paint10_linear_1_926)" stroke="#090B72" stroke-width="2" stroke-miterlimit="10"></path><path d="M31.1899 383.746V454.852" stroke="#090B72" stroke-width="2" stroke-miterlimit="10"></path><path d="M31.1898 409.409L22.2988 399.096" stroke="#090B72" stroke-width="2" stroke-miterlimit="10"></path><path d="M244.738 408.992H48.6129V453.173H244.738V408.992Z" fill="url(#paint11_linear_1_926)" stroke="#090B72" stroke-width="2" stroke-miterlimit="10"></path><path d="M225.31 408.992V453.173" stroke="#090B72" stroke-width="2" stroke-miterlimit="10"></path><path d="M319.919 0V79.5263" stroke="#090B72" stroke-width="2" stroke-miterlimit="10"></path><path d="M281.783 159.052V177.987" stroke="#090B72" stroke-width="2" stroke-miterlimit="10"></path><path d="M13.7449 453.173H551.999" stroke="#090B72" stroke-width="2" stroke-miterlimit="10"></path><path d="M182.63 422.878H92.1945V443.075H182.63V422.878Z" fill="white" stroke="#090B72" stroke-width="2" stroke-miterlimit="10"></path><path d="M244.737 408.992H225.124V453.173H244.737V408.992Z" fill="url(#paint12_linear_1_926)" stroke="#090B72" stroke-width="2" stroke-miterlimit="10"></path><path d="M431.394 453.173C431.394 452.757 431.34 452.34 431.34 451.911C431.333 448.689 431.974 445.509 433.21 442.623C434.447 439.737 436.246 437.224 438.466 435.282C440.685 433.34 443.264 432.023 445.998 431.434C448.733 430.846 451.548 431.002 454.221 431.891C457.733 427.277 462.375 424.011 467.529 422.527C472.682 421.044 478.104 421.414 483.071 423.587C488.039 425.76 492.318 429.635 495.339 434.694C498.36 439.754 499.98 445.759 499.983 451.911C499.983 452.34 499.983 452.757 499.983 453.173H431.394Z" fill="url(#paint13_linear_1_926)" stroke="#090B72" stroke-width="2" stroke-miterlimit="10"></path><defs><linearGradient id="paint0_linear_1_926" x1="65.7178" y1="431.121" x2="49.0007" y2="264.375" gradientUnits="userSpaceOnUse"><stop stop-color="#3670F5"></stop><stop offset="0.99" stop-color="#5B9BF3"></stop></linearGradient><linearGradient id="paint1_linear_1_926" x1="465.727" y1="445.764" x2="457.275" y2="95.711" gradientUnits="userSpaceOnUse"><stop stop-color="#DEEBFD"></stop><stop offset="0.45" stop-color="#A6C9F9"></stop><stop offset="1" stop-color="#5B9BF3"></stop></linearGradient><linearGradient id="paint2_linear_1_926" x1="261.821" y1="555.99" x2="268.212" y2="-17.9823" gradientUnits="userSpaceOnUse"><stop stop-color="white"></stop><stop offset="0.21" stop-color="#FBFDFF"></stop><stop offset="0.43" stop-color="#EEF6FF"></stop><stop offset="0.65" stop-color="#D9EAFF"></stop><stop offset="0.87" stop-color="#BDDAFF"></stop><stop offset="1" stop-color="#A8CEFF"></stop></linearGradient><linearGradient id="paint3_linear_1_926" x1="658.604" y1="168.52" x2="437.877" y2="168.52" gradientUnits="userSpaceOnUse"><stop stop-color="#DEEBFD"></stop><stop offset="0.87" stop-color="#5B9BF3"></stop></linearGradient><linearGradient id="paint4_linear_1_926" x1="466.979" y1="209.949" x2="523.198" y2="244.27" gradientUnits="userSpaceOnUse"><stop stop-color="#DEEBFD"></stop><stop offset="1" stop-color="#A8CEFF"></stop></linearGradient><linearGradient id="paint5_linear_1_926" x1="39719.4" y1="7146.92" x2="12400.5" y2="37882.4" gradientUnits="userSpaceOnUse"><stop stop-color="white"></stop><stop offset="0.21" stop-color="#FBFDFF"></stop><stop offset="0.43" stop-color="#EEF6FF"></stop><stop offset="0.65" stop-color="#D9EAFF"></stop><stop offset="0.87" stop-color="#BDDAFF"></stop><stop offset="1" stop-color="#A8CEFF"></stop></linearGradient><linearGradient id="paint6_linear_1_926" x1="34754.6" y1="7436.34" x2="21064" y2="7436.34" gradientUnits="userSpaceOnUse"><stop stop-color="#DEEBFD"></stop><stop offset="0.87" stop-color="#5B9BF3"></stop></linearGradient><linearGradient id="paint7_linear_1_926" x1="258.771" y1="135.699" x2="343.202" y2="135.699" gradientUnits="userSpaceOnUse"><stop offset="0.14" stop-color="#DEEBFD"></stop><stop offset="0.26" stop-color="#D8E7FD"></stop><stop offset="0.42" stop-color="#C8DEFB"></stop><stop offset="0.6" stop-color="#ADCDF9"></stop><stop offset="0.8" stop-color="#88B6F6"></stop><stop offset="0.99" stop-color="#5B9BF3"></stop></linearGradient><linearGradient id="paint8_linear_1_926" x1="27397.5" y1="401.166" x2="27397.5" y2="2039.17" gradientUnits="userSpaceOnUse"><stop stop-color="white"></stop><stop offset="0.21" stop-color="#FBFDFF"></stop><stop offset="0.43" stop-color="#EEF6FF"></stop><stop offset="0.65" stop-color="#D9EAFF"></stop><stop offset="0.87" stop-color="#BDDAFF"></stop><stop offset="1" stop-color="#A8CEFF"></stop></linearGradient><linearGradient id="paint9_linear_1_926" x1="13294.2" y1="1556.8" x2="16299.7" y2="-2828.66" gradientUnits="userSpaceOnUse"><stop stop-color="#DEEBFD"></stop><stop offset="0.87" stop-color="#5B9BF3"></stop></linearGradient><linearGradient id="paint10_linear_1_926" x1="6968.01" y1="20157.2" x2="6968.01" y2="47463.7" gradientUnits="userSpaceOnUse"><stop stop-color="#DEEBFD"></stop><stop offset="1" stop-color="#A8CEFF"></stop></linearGradient><linearGradient id="paint11_linear_1_926" x1="29981.2" y1="15270.7" x2="5421.75" y2="45400.1" gradientUnits="userSpaceOnUse"><stop stop-color="white"></stop><stop offset="0.21" stop-color="#FBFDFF"></stop><stop offset="0.43" stop-color="#EEF6FF"></stop><stop offset="0.65" stop-color="#D9EAFF"></stop><stop offset="0.87" stop-color="#BDDAFF"></stop><stop offset="1" stop-color="#A8CEFF"></stop></linearGradient><linearGradient id="paint12_linear_1_926" x1="4443.19" y1="13057.6" x2="4443.19" y2="16627" gradientUnits="userSpaceOnUse"><stop stop-color="#DEEBFD"></stop><stop offset="0.45" stop-color="#A6C9F9"></stop><stop offset="1" stop-color="#5B9BF3"></stop></linearGradient><linearGradient id="paint13_linear_1_926" x1="32642.4" y1="11123.7" x2="29468.2" y2="13135.5" gradientUnits="userSpaceOnUse"><stop stop-color="#3670F5"></stop><stop offset="0.99" stop-color="#5B9BF3"></stop></linearGradient></defs></svg>