<svg width="42" height="42" viewBox="0 0 42 42" fill="none" xmlns="http://www.w3.org/2000/svg">
<circle cx="21" cy="21" r="20" fill="#32B5EF" stroke="white" stroke-width="2"/>
<path fill-rule="evenodd" clip-rule="evenodd" d="M21.0009 12.1997C19.8339 12.1997 18.7147 12.6633 17.8896 13.4884C17.0644 14.3136 16.6009 15.4328 16.6009 16.5997V17.6997H15.5009C15.2301 17.6997 14.9688 17.7996 14.767 17.9802C14.5653 18.1608 14.4372 18.4096 14.4075 18.6787L13.3075 28.5787C13.2904 28.7324 13.306 28.888 13.3532 29.0353C13.4004 29.1826 13.4781 29.3183 13.5813 29.4335C13.6845 29.5487 13.8108 29.6409 13.952 29.704C14.0933 29.7671 14.2462 29.7997 14.4009 29.7997H27.6009C27.7555 29.7997 27.9085 29.7671 28.0497 29.704C28.1909 29.6409 28.3172 29.5487 28.4204 29.4335C28.5236 29.3183 28.6013 29.1826 28.6485 29.0353C28.6957 28.888 28.7113 28.7324 28.6943 28.5787L27.5943 18.6787C27.5645 18.4096 27.4364 18.1608 27.2347 17.9802C27.0329 17.7996 26.7717 17.6997 26.5009 17.6997H25.4009V16.5997C25.4009 15.4328 24.9373 14.3136 24.1121 13.4884C23.287 12.6633 22.1678 12.1997 21.0009 12.1997ZM23.2009 17.6997V16.5997C23.2009 16.0162 22.9691 15.4567 22.5565 15.0441C22.1439 14.6315 21.5843 14.3997 21.0009 14.3997C20.4174 14.3997 19.8578 14.6315 19.4452 15.0441C19.0326 15.4567 18.8009 16.0162 18.8009 16.5997V17.6997H23.2009ZM16.6009 20.9997C16.6009 20.708 16.7167 20.4282 16.923 20.2219C17.1293 20.0156 17.4091 19.8997 17.7009 19.8997C17.9926 19.8997 18.2724 20.0156 18.4787 20.2219C18.685 20.4282 18.8009 20.708 18.8009 20.9997C18.8009 21.2914 18.685 21.5712 18.4787 21.7775C18.2724 21.9838 17.9926 22.0997 17.7009 22.0997C17.4091 22.0997 17.1293 21.9838 16.923 21.7775C16.7167 21.5712 16.6009 21.2914 16.6009 20.9997ZM24.3009 19.8997C24.0091 19.8997 23.7293 20.0156 23.523 20.2219C23.3168 20.4282 23.2009 20.708 23.2009 20.9997C23.2009 21.2914 23.3168 21.5712 23.523 21.7775C23.7293 21.9838 24.0091 22.0997 24.3009 22.0997C24.5926 22.0997 24.8724 21.9838 25.0787 21.7775C25.285 21.5712 25.4009 21.2914 25.4009 20.9997C25.4009 20.708 25.285 20.4282 25.0787 20.2219C24.8724 20.0156 24.5926 19.8997 24.3009 19.8997Z" fill="#1D1D21"/>
</svg>
