<svg width="42" height="42" viewBox="0 0 42 42" fill="none" xmlns="http://www.w3.org/2000/svg">
<circle cx="21" cy="21" r="20" fill="#B3D37E" stroke="white" stroke-width="2"/>
<path fill-rule="evenodd" clip-rule="evenodd" d="M21 15.1163L28.5 22.6163V27.875C28.5 28.3723 28.3025 28.8492 27.9508 29.2008C27.5992 29.5525 27.1223 29.75 26.625 29.75H15.375C14.8777 29.75 14.4008 29.5525 14.0492 29.2008C13.6975 28.8492 13.5 28.3723 13.5 27.875V22.6163L21 15.1163ZM27.25 14.125V18.5L24.75 16V14.125C24.75 13.9592 24.8158 13.8003 24.9331 13.6831C25.0503 13.5658 25.2092 13.5 25.375 13.5H26.625C26.7908 13.5 26.9497 13.5658 27.0669 13.6831C27.1842 13.8003 27.25 13.9592 27.25 14.125Z" fill="#1D1D21"/>
<path fill-rule="evenodd" clip-rule="evenodd" d="M20.117 12.8753C20.3514 12.6409 20.6693 12.5093 21.0008 12.5093C21.3322 12.5093 21.6501 12.6409 21.8845 12.8753L30.1933 21.1828C30.3106 21.3001 30.3766 21.4593 30.3766 21.6253C30.3766 21.7912 30.3106 21.9504 30.1933 22.0678C30.0759 22.1851 29.9168 22.251 29.7508 22.251C29.5848 22.251 29.4256 22.1851 29.3083 22.0678L21.0008 13.759L12.6933 22.0678C12.5759 22.1851 12.4168 22.251 12.2508 22.251C12.0848 22.251 11.9256 22.1851 11.8083 22.0678C11.6909 21.9504 11.625 21.7912 11.625 21.6253C11.625 21.4593 11.6909 21.3001 11.8083 21.1828L20.117 12.8753Z" fill="#1D1D21"/>
</svg>
