<svg width="42" height="42" viewBox="0 0 42 42" fill="none" xmlns="http://www.w3.org/2000/svg">
<circle cx="21" cy="21" r="20" fill="#FE9861" stroke="white" stroke-width="2"/>
<path d="M23.5 12.25H18.5C18.1685 12.25 17.8505 12.3817 17.6161 12.6161C17.3817 12.8505 17.25 13.1685 17.25 13.5V29.5938C17.25 29.6352 17.2665 29.6749 17.2958 29.7042C17.3251 29.7335 17.3648 29.75 17.4062 29.75H24.5938C24.6352 29.75 24.6749 29.7335 24.7042 29.7042C24.7335 29.6749 24.75 29.6352 24.75 29.5938V13.5C24.75 13.1685 24.6183 12.8505 24.3839 12.6161C24.1495 12.3817 23.8315 12.25 23.5 12.25ZM29.125 18.5H26.3125C26.2296 18.5 26.1501 18.5329 26.0915 18.5915C26.0329 18.6501 26 18.7296 26 18.8125V29.4375C26 29.5204 26.0329 29.5999 26.0915 29.6585C26.1501 29.7171 26.2296 29.75 26.3125 29.75H29.4375C29.6861 29.75 29.9246 29.6512 30.1004 29.4754C30.2762 29.2996 30.375 29.0611 30.375 28.8125V19.75C30.375 19.4185 30.2433 19.1005 30.0089 18.8661C29.7745 18.6317 29.4565 18.5 29.125 18.5ZM12.875 16C12.5435 16 12.2255 16.1317 11.9911 16.3661C11.7567 16.6005 11.625 16.9185 11.625 17.25V28.8125C11.625 29.0611 11.7238 29.2996 11.8996 29.4754C12.0754 29.6512 12.3139 29.75 12.5625 29.75H15.6875C15.7704 29.75 15.8499 29.7171 15.9085 29.6585C15.9671 29.5999 16 29.5204 16 29.4375V16.3125C16 16.2296 15.9671 16.1501 15.9085 16.0915C15.8499 16.0329 15.7704 16 15.6875 16H12.875Z" fill="#1D1D21"/>
</svg>
